<?xml version="1.0" encoding="UTF-8"?>
<!DOCTYPE svg PUBLIC "-//W3C//DTD SVG 1.1//EN" "http://www.w3.org/Graphics/SVG/1.1/DTD/svg11.dtd">
<svg xmlns="http://www.w3.org/2000/svg" version="1.1" width="667px" height="667px" style="shape-rendering:geometricPrecision; text-rendering:geometricPrecision; image-rendering:optimizeQuality; fill-rule:evenodd; clip-rule:evenodd" xmlns:xlink="http://www.w3.org/1999/xlink">
<g><path style="opacity:0.994" fill="#2e2f2e" d="M 309.5,13.5 C 420.845,9.29841 512.012,49.6317 583,134.5C 649.257,222.795 667.924,320.462 639,427.5C 612.789,511.028 561.623,574.195 485.5,617C 381.669,669.959 278.003,669.625 174.5,616C 74.7289,556.701 19.8956,468.867 10,352.5C 6.77861,238.131 49.9453,145.964 139.5,76C 190.275,39.2405 246.942,18.4072 309.5,13.5 Z"/></g>
<g><path style="opacity:1" fill="#fefefd" d="M 501.5,155.5 C 501.5,157.5 502.5,158.5 504.5,158.5C 505.5,158.833 506.167,159.5 506.5,160.5C 508.094,163.764 510.427,166.431 513.5,168.5C 514.833,169.167 515.833,170.167 516.5,171.5C 517.08,173.749 518.413,175.415 520.5,176.5C 521.5,176.833 522.167,177.5 522.5,178.5C 522.738,180.404 523.738,181.738 525.5,182.5C 525.738,184.404 526.738,185.738 528.5,186.5C 528.738,188.404 529.738,189.738 531.5,190.5C 531.427,192.027 532.094,193.027 533.5,193.5C 533.427,195.027 534.094,196.027 535.5,196.5C 535.427,198.027 536.094,199.027 537.5,199.5C 537.427,201.027 538.094,202.027 539.5,202.5C 539.427,204.027 540.094,205.027 541.5,205.5C 541.427,207.027 542.094,208.027 543.5,208.5C 544.674,209.514 545.34,210.847 545.5,212.5C 545.427,214.027 546.094,215.027 547.5,215.5C 549.973,220.447 552.473,225.447 555,230.5C 555.684,231.784 555.517,232.951 554.5,234C 498.002,267.081 441.668,300.415 385.5,334C 442.665,367.415 499.665,401.081 556.5,435C 553.169,439.828 550.503,444.995 548.5,450.5C 547.094,450.973 546.427,451.973 546.5,453.5C 546.34,455.153 545.674,456.486 544.5,457.5C 543.094,457.973 542.427,458.973 542.5,460.5C 542.672,461.492 542.338,462.158 541.5,462.5C 540.094,462.973 539.427,463.973 539.5,465.5C 538.094,465.973 537.427,466.973 537.5,468.5C 536.094,468.973 535.427,469.973 535.5,471.5C 534.094,471.973 533.427,472.973 533.5,474.5C 532.094,474.973 531.427,475.973 531.5,477.5C 529.738,478.262 528.738,479.596 528.5,481.5C 526.738,482.262 525.738,483.596 525.5,485.5C 523.167,488.167 520.833,490.833 518.5,493.5C 517.094,493.973 516.427,494.973 516.5,496.5C 460.915,555.987 392.249,583.487 310.5,579C 224.49,568.924 159.657,526.757 116,452.5C 73.8899,369.59 75.5566,287.59 121,206.5C 175.465,123.515 252.632,84.3482 352.5,89C 409.93,94.2417 459.597,116.408 501.5,155.5 Z"/></g>
<g><path style="opacity:1" fill="#f9b233" d="M 314.5,126.5 C 382.424,123.398 439.59,146.398 486,195.5C 492.319,202.807 498.152,210.474 503.5,218.5C 438.725,256.766 374.058,295.266 309.5,334C 374.297,371.967 438.964,410.134 503.5,448.5C 466.949,501.778 416.282,532.278 351.5,540C 263.561,544.787 196.728,509.954 151,435.5C 122.834,382.842 117.167,327.842 134,270.5C 158.086,202.747 204.253,157.58 272.5,135C 286.404,130.965 300.404,128.132 314.5,126.5 Z"/></g>
<g><path style="opacity:1" fill="#d3ae71" d="M 501.5,155.5 C 502.833,156.167 503.833,157.167 504.5,158.5C 502.5,158.5 501.5,157.5 501.5,155.5 Z"/></g>
<g><path style="opacity:1" fill="#ccaa6f" d="M 506.5,160.5 C 509.573,162.569 511.906,165.236 513.5,168.5C 510.427,166.431 508.094,163.764 506.5,160.5 Z"/></g>
<g><path style="opacity:1" fill="#dab87f" d="M 516.5,171.5 C 518.587,172.585 519.92,174.251 520.5,176.5C 518.413,175.415 517.08,173.749 516.5,171.5 Z"/></g>
<g><path style="opacity:1" fill="#d3ae70" d="M 522.5,178.5 C 524.262,179.262 525.262,180.596 525.5,182.5C 523.738,181.738 522.738,180.404 522.5,178.5 Z"/></g>
<g><path style="opacity:1" fill="#debb81" d="M 525.5,182.5 C 527.262,183.262 528.262,184.596 528.5,186.5C 526.738,185.738 525.738,184.404 525.5,182.5 Z"/></g>
<g><path style="opacity:1" fill="#dfba7c" d="M 528.5,186.5 C 530.262,187.262 531.262,188.596 531.5,190.5C 529.738,189.738 528.738,188.404 528.5,186.5 Z"/></g>
<g><path style="opacity:1" fill="#e4be7c" d="M 531.5,190.5 C 532.906,190.973 533.573,191.973 533.5,193.5C 532.094,193.027 531.427,192.027 531.5,190.5 Z"/></g>
<g><path style="opacity:1" fill="#edc888" d="M 533.5,193.5 C 534.906,193.973 535.573,194.973 535.5,196.5C 534.094,196.027 533.427,195.027 533.5,193.5 Z"/></g>
<g><path style="opacity:1" fill="#edc888" d="M 535.5,196.5 C 536.906,196.973 537.573,197.973 537.5,199.5C 536.094,199.027 535.427,198.027 535.5,196.5 Z"/></g>
<g><path style="opacity:1" fill="#edc480" d="M 537.5,199.5 C 538.906,199.973 539.573,200.973 539.5,202.5C 538.094,202.027 537.427,201.027 537.5,199.5 Z"/></g>
<g><path style="opacity:1" fill="#e4ba70" d="M 539.5,202.5 C 540.906,202.973 541.573,203.973 541.5,205.5C 540.094,205.027 539.427,204.027 539.5,202.5 Z"/></g>
<g><path style="opacity:1" fill="#d6ac62" d="M 541.5,205.5 C 542.906,205.973 543.573,206.973 543.5,208.5C 542.094,208.027 541.427,207.027 541.5,205.5 Z"/></g>
<g><path style="opacity:1" fill="#dbac5b" d="M 545.5,212.5 C 546.906,212.973 547.573,213.973 547.5,215.5C 546.094,215.027 545.427,214.027 545.5,212.5 Z"/></g>
<g><path style="opacity:1" fill="#c2964a" d="M 548.5,450.5 C 548.573,452.027 547.906,453.027 546.5,453.5C 546.427,451.973 547.094,450.973 548.5,450.5 Z"/></g>
<g><path style="opacity:1" fill="#c3974b" d="M 544.5,457.5 C 544.573,459.027 543.906,460.027 542.5,460.5C 542.427,458.973 543.094,457.973 544.5,457.5 Z"/></g>
<g><path style="opacity:1" fill="#bb9046" d="M 541.5,462.5 C 541.573,464.027 540.906,465.027 539.5,465.5C 539.427,463.973 540.094,462.973 541.5,462.5 Z"/></g>
<g><path style="opacity:1" fill="#c89b4c" d="M 539.5,465.5 C 539.573,467.027 538.906,468.027 537.5,468.5C 537.427,466.973 538.094,465.973 539.5,465.5 Z"/></g>
<g><path style="opacity:1" fill="#c89e56" d="M 537.5,468.5 C 537.573,470.027 536.906,471.027 535.5,471.5C 535.427,469.973 536.094,468.973 537.5,468.5 Z"/></g>
<g><path style="opacity:1" fill="#bc934c" d="M 535.5,471.5 C 535.573,473.027 534.906,474.027 533.5,474.5C 533.427,472.973 534.094,471.973 535.5,471.5 Z"/></g>
<g><path style="opacity:1" fill="#b08b48" d="M 533.5,474.5 C 533.573,476.027 532.906,477.027 531.5,477.5C 531.427,475.973 532.094,474.973 533.5,474.5 Z"/></g>
<g><path style="opacity:1" fill="#9e7d42" d="M 531.5,477.5 C 531.262,479.404 530.262,480.738 528.5,481.5C 528.738,479.596 529.738,478.262 531.5,477.5 Z"/></g>
<g><path style="opacity:1" fill="#9e7e44" d="M 528.5,481.5 C 528.262,483.404 527.262,484.738 525.5,485.5C 525.738,483.596 526.738,482.262 528.5,481.5 Z"/></g>
<g><path style="opacity:1" fill="#ae8e53" d="M 518.5,493.5 C 518.573,495.027 517.906,496.027 516.5,496.5C 516.427,494.973 517.094,493.973 518.5,493.5 Z"/></g>
</svg>
